<svg version="1.0" xmlns="http://www.w3.org/2000/svg" width="853.333" height="853.333" viewBox="0 0 640 640"><path d="M293.7.6c-.2.2-3.3.6-6.8.9-3.5.3-7.5.7-8.9 1-1.4.2-5 .7-8 1.1-3 .4-5.7.8-6 .9-.3.1-2.5.5-5 .9-13.9 2.5-40.8 9.9-49.5 13.7-1.1.4-5.6 2.2-10 3.9-4.4 1.7-13.2 5.6-19.5 8.7-12 5.9-36.3 20-36.8 21.4-.2.5-.8.9-1.3.9-.9 0-10.8 6.9-13.5 9.4-.7.6-2.4 2-4 3.1-10.4 7.5-36.3 32.2-44.9 43-2.2 2.7-4.6 5.6-5.3 6.4C71.3 119 61 133 61 133.9c0 .5-.4 1.1-.9 1.3-1.6.5-15.7 23.9-21.9 36.4-7.3 14.5-15.1 32.9-16.7 39.4-.1.3-.7 1.8-1.3 3.3-.7 1.6-1.2 3.2-1.2 3.6 0 .4-.9 3.5-2 6.8-1.1 3.4-2.1 6.9-2.3 7.9-.2 1.1-.9 3.7-1.5 5.9s-1.3 5.1-1.6 6.5c-.2 1.4-.9 4.5-1.4 7-.6 2.5-1.3 6.3-1.6 8.5-.4 2.3-.8 5-1 6-.5 2.8-1.4 9.9-2.3 18-1.5 14.8-.7 59.7 1.3 69.9.2 1.2.7 4.1 1 6.6.3 2.5.8 5.6 1 7 .3 1.4.9 4.7 1.4 7.5.5 2.7 1.3 6.5 1.9 8.2.5 1.8.8 3.3.6 3.3-.3 0 0 1.1.5 2.6.6 1.4 1.2 3.7 1.5 5.2.5 2.9 7.9 26.4 9.4 29.7.5 1.1 2.3 5.4 3.9 9.6C32.2 445 39.6 460 45.9 471c6 10.4 19.8 31.3 23.1 34.7 1.1 1.2 2 2.5 2 2.8 0 .3.8 1.3 1.7 2.3 1 1 3.8 4.3 6.3 7.3 12.4 14.9 28.5 30.4 44.9 43.2 2 1.5 4.3 3.3 5.1 4 .8.7 5.1 3.7 9.5 6.7s8.1 5.8 8.3 6.2c.2.5.8.8 1.4.8.5 0 2.8 1.3 5.1 2.8 7.9 5.4 24.8 14.2 40.7 21.2 15.4 6.7 46.6 16.6 58.3 18.4 2.1.3 4.6 1 5.5 1.5.9.5 1.9.9 2.2.9.3 0 4.6 1.2 9.5 2.6 13.3 3.9 18.7 5.4 22 6.1 1.7.3 4.1.8 5.5 1 1.4.3 3.9.8 5.5 1 1.7.3 3.7.8 4.5 1 .8.2 3.8.7 6.5 1 2.8.3 5.9.7 7 .9 10.7 2 53.4 2.9 67.9 1.4 11.4-1.2 20.1-2.4 20.1-2.8 0-.1 1.6-.3 3.5-.5 4-.4 5.1-.6 18-3.4 5.2-1.2 11.1-2.7 13-3.3 3.5-1.2 4.1-1.4 7-2.1.8-.2 2.2-.7 3-1 .8-.3 4.7-1.5 8.5-2.8 3.9-1.2 7.5-2.4 8-2.8.6-.3 1.2-.6 1.5-.7 1.4-.3 16.3-6.5 23.8-10 4.1-1.9 7.5-3.4 7.7-3.4.4 0 2.8-1 18.5-8.1 3.6-1.6 7.2-3.4 8-3.9.8-.5 4-2.2 7-3.6 3-1.5 5.7-3 6-3.3.3-.4 3.9-2.6 8-5.1 4.1-2.4 7.9-4.7 8.5-5.2.5-.4 4.8-3.5 9.5-6.8 9.5-6.6 12.5-8.9 18.4-14 2.2-1.9 4.7-4.1 5.6-4.8 3.9-3.1 26-25.3 30.1-30.2 2.6-3 6.2-7.2 8-9.4 3.8-4.3 4.3-3.2-4.6-10.1-2.1-1.7-5.2-4.1-6.9-5.5-5.6-4.5-31.1-24.6-35.2-27.7-1.6-1.2-4-3.1-5.4-4.2-1.4-1.1-7.4-5.9-13.5-10.6-6-4.8-12.3-9.7-13.8-11-1.5-1.3-4.3-3.3-6.2-4.5-1.9-1.2-3.5-2.5-3.5-2.8 0-.4-1.6-1.8-3.5-3.1s-4.5-3.2-5.7-4.3c-1.3-1.1-5.4-4.4-9.3-7.3-3.8-2.9-8-6.3-9.2-7.4-1.2-1.2-2.5-2.1-2.8-2.1-.8 0-10.9-8.2-11.3-9.3-.8-1.7-2.9-.2-11.2 8.6l-8.8 9.2-4-3.3c-2.3-1.7-4.4-3.2-4.9-3.2-.4 0-3.3 2.8-6.4 6.2-5.3 5.9-5.7 6.1-7.3 4.5-1-.9-2.1-1.7-2.4-1.7-.4 0-1.8-1-3.2-2.3-1.4-1.2-5-4.1-8-6.5-3-2.3-7-5.5-8.8-7-1.9-1.5-4.5-3.4-5.8-4.2-2.3-1.4-2.6-1.3-3.6.5-2.5 4.5-21.4 21.7-30.6 27.7-14 9.3-34.2 18.4-42 19-6 .4-30.6-10.4-43.4-19.2-18.9-12.9-34.3-30.1-44.7-50-4.4-8.4-9.6-20.7-10.6-25-.2-.8-1.3-5.3-2.4-10-2.5-10.6-3.3-18.6-3.3-31.5 0-13.4 1.2-22.8 4.7-36.5.1-.3 1-3.2 2-6.5s1.8-6.3 1.7-6.8c-.1-.4.2-.7.8-.7.5 0 1-.6 1-1.3 0-.6 1.3-4 3-7.5 1.6-3.4 2.9-6.5 2.9-6.9 0-.3.3-.9.8-1.2.5-.3 2.2-2.9 3.7-5.6 8.4-14.7 28.4-35.2 43.1-44.2 5.4-3.3 10.9-5.3 20.5-7.5 8.7-1.9 13.4-2.3 27.4-2.3 12.7 0 17 .3 17.3 1.2.3.7 1.1 1.3 1.8 1.3 1.6 0 13.9 7 14.3 8.2.2.4.8.8 1.4.8.6 0 2.3 1.1 4 2.5 2.9 2.4 5.8 3.3 5.8 1.7 0-.4 1.3-2.2 2.8-4l2.7-3.3 5.5 2.3c3 1.2 7.1 3.1 9 4.3 1.9 1.1 5.2 2.9 7.3 4 2.1 1.1 4.7 2.8 5.7 3.7 1.1 1 2.3 1.8 2.7 1.8.5 0 2 1.1 3.3 2.3l2.5 2.4 2.2-2.5c1.2-1.4 4.6-5.8 7.5-9.9 2.9-4 5.6-7.3 5.9-7.3.4 0 3 1.6 5.8 3.5 5.8 4 6.7 4.2 8 1.6.6-1 2-2.9 3.1-4.2 1.1-1.3 7.4-9.4 14-17.9 6.6-8.5 13.1-16.7 14.3-18.2 1.2-1.5 3.7-4.7 5.4-7 1.8-2.4 5.4-7.1 8-10.4 7.4-9.5 9.5-12.1 18.2-23.4 4.5-5.8 8.7-11.2 9.4-12 .7-.8 4.2-5.4 7.9-10.2 3.6-4.8 7.1-9.3 7.7-10 .6-.7 4.6-5.7 8.8-11.1 6.4-8.3 7.4-10 6.2-11.2C573.4 61.2 546 43 544 43c-.5 0-1-.3-1-.8 0-.4-1-1.2-2.3-1.8-1.2-.6-5.6-2.9-9.7-5-19.8-10.4-51.6-22.5-67.5-25.8-1.1-.3-5.1-1.2-9-2.1-6.8-1.6-14.3-3.1-21.5-4.1-3.8-.6-6.9-.9-17-2.1-6.2-.7-39.9-.9-60-.4-5.2.2-21.3 0-35.7-.2C305.9.4 294 .4 293.7.6z"/></svg>
