<svg width="79" height="80" viewBox="0 0 79 80" fill="none" xmlns="http://www.w3.org/2000/svg">
<path d="M78.6667 63.4385C73.9075 69.5581 67.4488 74.1224 60.1075 76.5544C52.7661 78.9864 44.8718 79.1767 37.4227 77.1014C29.9737 75.0261 23.3045 70.7783 18.2585 64.8951C13.2126 59.012 10.0165 51.7578 9.07438 44.0499C8.1323 36.3419 9.48657 28.5265 12.9659 21.5917C16.4453 14.657 21.8934 8.91454 28.6215 5.09046C35.3495 1.26639 43.0552 -0.467522 50.7641 0.107993C58.4731 0.683508 65.839 3.5426 71.9305 8.32372L58.5963 25.4693C55.8804 23.3376 52.5962 22.0629 49.159 21.8063C45.7219 21.5497 42.2863 22.3227 39.2865 24.0278C36.2867 25.7328 33.8576 28.2931 32.3063 31.385C30.755 34.477 30.1512 37.9616 30.5712 41.3982C30.9913 44.8349 32.4163 48.0693 34.6661 50.6923C36.9159 53.3154 39.8894 55.2093 43.2106 56.1346C46.5319 57.0599 50.0517 56.9751 53.3249 55.8907C56.5981 54.8064 59.4778 52.7713 61.5997 50.0429L78.6667 63.4385Z" fill="#E50915"/>
<path d="M75.2999 64.9091C70.5407 71.0286 64.082 75.593 56.7407 78.025C49.3993 80.4569 41.505 80.6473 34.0559 78.572C26.6069 76.4966 19.9377 72.2488 14.8917 66.3657C9.84575 60.4826 6.64965 53.2284 5.70757 45.5205C4.7655 37.8125 6.11977 29.997 9.59912 23.0623C13.0785 16.1276 18.5266 10.3851 25.2546 6.56103C31.9827 2.73696 39.6884 1.00304 47.3973 1.57856C55.1062 2.15407 62.4722 5.01317 68.5637 9.79429L55.2295 26.9399C52.5135 24.8082 49.2294 23.5334 45.7922 23.2768C42.3551 23.0202 38.9195 23.7933 35.9197 25.4983C32.9199 27.2033 30.4908 29.7637 28.9395 32.8556C27.3882 35.9475 26.7844 39.4321 27.2044 42.8688C27.6244 46.3055 29.0495 49.5398 31.2993 52.1629C33.5491 54.786 36.5226 56.6799 39.8438 57.6052C43.1651 58.5305 46.6849 58.4456 49.9581 57.3613C53.2313 56.277 56.111 54.2419 58.2329 51.5134L75.2999 64.9091Z" fill="#09D8E5"/>
<path d="M69.8836 63.4385C65.1245 69.5581 58.6658 74.1224 51.3245 76.5544C43.9831 78.9864 36.0887 79.1767 28.6397 77.1014C21.1906 75.0261 14.5215 70.7783 9.47549 64.8951C4.42953 59.012 1.23343 51.7578 0.291359 44.0499C-0.650714 36.3419 0.703553 28.5265 4.1829 21.5917C7.66225 14.657 13.1104 8.91454 19.8384 5.09046C26.5665 1.26639 34.2722 -0.467522 41.9811 0.107993C49.69 0.683508 57.056 3.5426 63.1475 8.32372L49.8133 25.4693C47.0973 23.3376 43.8131 22.0629 40.376 21.8063C36.9389 21.5497 33.5032 22.3227 30.5035 24.0278C27.5037 25.7328 25.0746 28.2931 23.5233 31.385C21.972 34.477 21.3682 37.9616 21.7882 41.3982C22.2082 44.8349 23.6332 48.0693 25.883 50.6923C28.1328 53.3154 31.1064 55.2093 34.4276 56.1346C37.7489 57.0599 41.2686 56.9751 44.5419 55.8907C47.8151 54.8064 50.6948 52.7713 52.8167 50.0429L69.8836 63.4385Z" fill="white"/>
</svg>
